<svg width="32" height="32" viewBox="0 0 32 32" fill="none" xmlns="http://www.w3.org/2000/svg">
<path d="M16 2.66666C8.63329 2.66666 2.66663 8.63332 2.66663 16C2.66512 18.799 3.54505 21.5275 5.18158 23.7982C6.81812 26.069 9.12815 27.7668 11.784 28.6507C12.4506 28.7667 12.7 28.3667 12.7 28.016C12.7 27.7 12.6826 26.6507 12.6826 25.5333C9.33329 26.1507 8.46663 24.7173 8.19996 23.9667C8.04929 23.5827 7.39996 22.4 6.83329 22.0827C6.36663 21.8333 5.69996 21.216 6.81596 21.2C7.86663 21.1827 8.61596 22.1667 8.86663 22.5667C10.0666 24.5827 11.984 24.016 12.7493 23.6667C12.8666 22.8 13.216 22.2173 13.6 21.884C10.6333 21.5507 7.53329 20.4 7.53329 15.3C7.53329 13.8493 8.04929 12.6507 8.89996 11.716C8.76663 11.3827 8.29996 10.016 9.03329 8.18266C9.03329 8.18266 10.1493 7.83332 12.7 9.55066C13.7854 9.2494 14.9068 9.09778 16.0333 9.09999C17.1666 9.09999 18.3 9.24932 19.3666 9.54932C21.916 7.81599 23.0333 8.18399 23.0333 8.18399C23.7666 10.0173 23.3 11.384 23.1666 11.7173C24.016 12.6507 24.5333 13.8333 24.5333 15.3C24.5333 20.4173 21.4173 21.5507 18.4506 21.884C18.9333 22.3 19.3506 23.1 19.3506 24.3507C19.3506 26.1333 19.3333 27.5667 19.3333 28.0173C19.3333 28.3667 19.584 28.7827 20.2506 28.6493C22.8973 27.7557 25.1972 26.0546 26.8265 23.7855C28.4558 21.5164 29.3325 18.7935 29.3333 16C29.3333 8.63332 23.3666 2.66666 16 2.66666Z" fill="white"/>
</svg>
