<svg viewBox="0 0 62 32" height="32" width="62" xmlns="http://www.w3.org/2000/svg">
<path fill-rule="evenodd" clip-rule="evenodd" d="M13.3776 0.238808C2.65367 2.2636 -3.09013 13.5555 1.71301 23.1703C3.85259 27.4533 7.51224 30.3576 12.3928 31.6458L13.5501 31.9512L37.1061 31.9834C62.9016 32.0187 61.084 32.0701 61.6529 31.2904L61.9842 30.8363L61.9838 27.4597C61.9831 22.432 62.6858 22.887 54.9173 22.8829C48.6062 22.8795 48.3592 22.8597 47.7894 22.3115C47.1564 21.7023 47.1609 21.7825 47.1604 11.1132C47.16 -1.31545 47.7369 0.0706388 42.5646 0.0706388C37.5523 0.0706388 37.9702 -0.499659 37.9657 6.34392L37.9623 11.4203L35.7202 6.51501C32.6532 -0.195756 32.7448 -0.14134 30.7291 3.54915C30.1465 4.61565 29.544 5.7066 29.3901 5.9733L29.1104 6.45829L28.5597 5.80221C24.9483 1.50069 18.7412 -0.773894 13.3776 0.238808ZM19.1805 4.10638C21.3734 4.66469 23.5851 5.96254 25.1499 7.60933C25.8698 8.36702 27.0518 10.0027 27.0518 10.2413C27.0518 10.2983 24.8166 14.3985 22.0846 19.3529L17.1171 28.361H16.1243C7.1095 28.361 1.03032 18.8422 4.92471 10.8248C7.5415 5.4379 13.4583 2.64943 19.1805 4.10638ZM37.1567 18.6487C39.5689 23.9418 41.5224 28.2927 41.4976 28.3173C41.4729 28.3421 36.9275 28.349 31.3968 28.333L21.3412 28.3038L26.8629 18.2882L32.3845 8.27248L32.5776 8.64863C32.6837 8.85554 34.7443 13.3555 37.1567 18.6487Z" />
</svg>
