<svg viewBox="0 0 137 36" fill="none" xmlns="http://www.w3.org/2000/svg">
<path d="M78.942 9.7C78.942 10.888 78.678 11.98 78.15 12.976C77.622 13.96 76.89 14.74 75.954 15.316C75.03 15.892 73.986 16.18 72.822 16.18C71.658 16.18 70.608 15.892 69.672 15.316C68.748 14.74 68.022 13.96 67.494 12.976C66.978 11.98 66.72 10.888 66.72 9.7C66.72 8.512 66.978 7.426 67.494 6.442C68.022 5.446 68.748 4.66 69.672 4.084C70.608 3.508 71.658 3.22 72.822 3.22C73.986 3.22 75.03 3.508 75.954 4.084C76.89 4.66 77.622 5.446 78.15 6.442C78.678 7.426 78.942 8.512 78.942 9.7ZM76.602 9.7C76.602 8.896 76.44 8.17 76.116 7.522C75.792 6.862 75.342 6.34 74.766 5.956C74.19 5.572 73.542 5.38 72.822 5.38C72.09 5.38 71.436 5.572 70.86 5.956C70.296 6.328 69.852 6.844 69.528 7.504C69.216 8.164 69.06 8.896 69.06 9.7C69.06 10.504 69.216 11.236 69.528 11.896C69.852 12.556 70.296 13.078 70.86 13.462C71.436 13.834 72.09 14.02 72.822 14.02C73.542 14.02 74.19 13.828 74.766 13.444C75.342 13.06 75.792 12.544 76.116 11.896C76.44 11.236 76.602 10.504 76.602 9.7ZM85.4722 13.966C85.6402 13.966 85.7902 14.05 85.9222 14.218C86.0662 14.374 86.1382 14.584 86.1382 14.848C86.1382 15.172 85.9582 15.448 85.5982 15.676C85.2502 15.892 84.8542 16 84.4102 16C83.6662 16 83.0362 15.844 82.5202 15.532C82.0162 15.208 81.7642 14.53 81.7642 13.498V8.53H80.9362C80.6482 8.53 80.4082 8.434 80.2162 8.242C80.0242 8.05 79.9282 7.81 79.9282 7.522C79.9282 7.246 80.0242 7.018 80.2162 6.838C80.4082 6.646 80.6482 6.55 80.9362 6.55H81.7642V5.398C81.7642 5.086 81.8662 4.828 82.0702 4.624C82.2862 4.408 82.5502 4.3 82.8622 4.3C83.1622 4.3 83.4142 4.408 83.6182 4.624C83.8222 4.828 83.9242 5.086 83.9242 5.398V6.55H85.2022C85.4902 6.55 85.7302 6.646 85.9222 6.838C86.1142 7.03 86.2102 7.27 86.2102 7.558C86.2102 7.834 86.1142 8.068 85.9222 8.26C85.7302 8.44 85.4902 8.53 85.2022 8.53H83.9242V13.408C83.9242 13.66 83.9902 13.846 84.1222 13.966C84.2542 14.074 84.4342 14.128 84.6622 14.128C84.7582 14.128 84.8902 14.104 85.0582 14.056C85.2022 13.996 85.3402 13.966 85.4722 13.966ZM92.8374 13.966C93.0054 13.966 93.1554 14.05 93.2874 14.218C93.4314 14.374 93.5034 14.584 93.5034 14.848C93.5034 15.172 93.3234 15.448 92.9634 15.676C92.6154 15.892 92.2194 16 91.7754 16C91.0314 16 90.4014 15.844 89.8854 15.532C89.3814 15.208 89.1294 14.53 89.1294 13.498V8.53H88.3014C88.0134 8.53 87.7734 8.434 87.5814 8.242C87.3894 8.05 87.2934 7.81 87.2934 7.522C87.2934 7.246 87.3894 7.018 87.5814 6.838C87.7734 6.646 88.0134 6.55 88.3014 6.55H89.1294V5.398C89.1294 5.086 89.2314 4.828 89.4354 4.624C89.6514 4.408 89.9154 4.3 90.2274 4.3C90.5274 4.3 90.7794 4.408 90.9834 4.624C91.1874 4.828 91.2894 5.086 91.2894 5.398V6.55H92.5674C92.8554 6.55 93.0954 6.646 93.2874 6.838C93.4794 7.03 93.5754 7.27 93.5754 7.558C93.5754 7.834 93.4794 8.068 93.2874 8.26C93.0954 8.44 92.8554 8.53 92.5674 8.53H91.2894V13.408C91.2894 13.66 91.3554 13.846 91.4874 13.966C91.6194 14.074 91.7994 14.128 92.0274 14.128C92.1234 14.128 92.2554 14.104 92.4234 14.056C92.5674 13.996 92.7054 13.966 92.8374 13.966ZM104.723 11.194C104.723 12.154 104.507 13.018 104.075 13.786C103.643 14.542 103.049 15.13 102.293 15.55C101.549 15.97 100.727 16.18 99.8268 16.18C98.9148 16.18 98.0868 15.97 97.3428 15.55C96.5988 15.13 96.0108 14.542 95.5788 13.786C95.1468 13.018 94.9308 12.154 94.9308 11.194C94.9308 10.234 95.1468 9.376 95.5788 8.62C96.0108 7.852 96.5988 7.258 97.3428 6.838C98.0868 6.406 98.9148 6.19 99.8268 6.19C100.727 6.19 101.549 6.406 102.293 6.838C103.049 7.258 103.643 7.852 104.075 8.62C104.507 9.376 104.723 10.234 104.723 11.194ZM102.563 11.194C102.563 10.606 102.437 10.084 102.185 9.628C101.945 9.16 101.615 8.8 101.195 8.548C100.787 8.296 100.331 8.17 99.8268 8.17C99.3228 8.17 98.8608 8.296 98.4408 8.548C98.0328 8.8 97.7028 9.16 97.4508 9.628C97.2108 10.084 97.0908 10.606 97.0908 11.194C97.0908 11.782 97.2108 12.304 97.4508 12.76C97.7028 13.216 98.0328 13.57 98.4408 13.822C98.8608 14.074 99.3228 14.2 99.8268 14.2C100.331 14.2 100.787 14.074 101.195 13.822C101.615 13.57 101.945 13.216 102.185 12.76C102.437 12.304 102.563 11.782 102.563 11.194ZM121.634 14.596C121.694 14.752 121.724 14.896 121.724 15.028C121.724 15.34 121.622 15.598 121.418 15.802C121.214 15.994 120.98 16.09 120.716 16.09C120.5 16.09 120.302 16.024 120.122 15.892C119.954 15.76 119.822 15.58 119.726 15.352L118.79 13.174H113.426L112.49 15.37C112.406 15.598 112.274 15.778 112.094 15.91C111.926 16.03 111.74 16.09 111.536 16.09C111.224 16.09 110.984 16.006 110.816 15.838C110.66 15.67 110.582 15.442 110.582 15.154C110.582 15.046 110.6 14.932 110.636 14.812L115.118 4.048C115.214 3.808 115.358 3.622 115.55 3.49C115.742 3.358 115.958 3.304 116.198 3.328C116.414 3.328 116.612 3.394 116.792 3.526C116.984 3.646 117.122 3.82 117.206 4.048L121.634 14.596ZM117.908 11.104L116.09 6.892L114.308 11.104H117.908ZM124.022 15.982C123.674 15.982 123.404 15.892 123.212 15.712C123.032 15.52 122.942 15.25 122.942 14.902V14.596C122.942 14.248 123.032 13.984 123.212 13.804C123.404 13.612 123.674 13.516 124.022 13.516H124.256C124.604 13.516 124.868 13.612 125.048 13.804C125.24 13.984 125.336 14.248 125.336 14.596V14.902C125.336 15.25 125.24 15.52 125.048 15.712C124.868 15.892 124.604 15.982 124.256 15.982H124.022Z" fill="black"/>
<path d="M74.298 32.894C74.61 32.894 74.868 32.996 75.072 33.2C75.288 33.392 75.396 33.644 75.396 33.956C75.396 34.256 75.288 34.508 75.072 34.712C74.868 34.904 74.61 35 74.298 35H68.448C68.136 35 67.872 34.898 67.656 34.694C67.452 34.478 67.35 34.214 67.35 33.902V23.498C67.35 23.186 67.458 22.928 67.674 22.724C67.89 22.508 68.166 22.4 68.502 22.4C68.802 22.4 69.06 22.508 69.276 22.724C69.492 22.928 69.6 23.186 69.6 23.498V32.894H74.298ZM85.0714 25.19C85.3834 25.19 85.6414 25.292 85.8454 25.496C86.0494 25.7 86.1514 25.964 86.1514 26.288V33.902C86.1514 34.214 86.0494 34.478 85.8454 34.694C85.6414 34.898 85.3834 35 85.0714 35C84.7594 35 84.5014 34.898 84.2974 34.694C84.1054 34.49 84.0034 34.232 83.9914 33.92C83.6914 34.268 83.2834 34.568 82.7674 34.82C82.2634 35.06 81.7294 35.18 81.1654 35.18C80.3374 35.18 79.5874 34.97 78.9154 34.55C78.2434 34.118 77.7094 33.524 77.3134 32.768C76.9294 32.012 76.7374 31.154 76.7374 30.194C76.7374 29.234 76.9294 28.376 77.3134 27.62C77.6974 26.852 78.2194 26.258 78.8794 25.838C79.5514 25.406 80.2894 25.19 81.0934 25.19C81.6694 25.19 82.2094 25.298 82.7134 25.514C83.2174 25.718 83.6434 25.982 83.9914 26.306V26.288C83.9914 25.976 84.0934 25.718 84.2974 25.514C84.5014 25.298 84.7594 25.19 85.0714 25.19ZM81.4354 33.2C82.2154 33.2 82.8514 32.918 83.3434 32.354C83.8354 31.778 84.0814 31.058 84.0814 30.194C84.0814 29.33 83.8354 28.61 83.3434 28.034C82.8514 27.458 82.2154 27.17 81.4354 27.17C80.6674 27.17 80.0374 27.458 79.5454 28.034C79.0534 28.61 78.8074 29.33 78.8074 30.194C78.8074 31.058 79.0474 31.778 79.5274 32.354C80.0194 32.918 80.6554 33.2 81.4354 33.2ZM90.5263 33.902C90.5263 34.214 90.4243 34.478 90.2203 34.694C90.0163 34.898 89.7583 35 89.4463 35C89.1343 35 88.8763 34.898 88.6723 34.694C88.4683 34.478 88.3663 34.214 88.3663 33.902V26.468C88.3663 26.156 88.4683 25.898 88.6723 25.694C88.8763 25.478 89.1343 25.37 89.4463 25.37C89.7583 25.37 90.0163 25.478 90.2203 25.694C90.4243 25.898 90.5263 26.156 90.5263 26.468V33.902ZM89.4283 24.2C89.0203 24.2 88.7323 24.134 88.5643 24.002C88.3963 23.87 88.3123 23.636 88.3123 23.3V22.958C88.3123 22.622 88.4023 22.388 88.5823 22.256C88.7623 22.124 89.0503 22.058 89.4463 22.058C89.8663 22.058 90.1603 22.124 90.3283 22.256C90.4963 22.388 90.5803 22.622 90.5803 22.958V23.3C90.5803 23.648 90.4903 23.888 90.3103 24.02C90.1423 24.14 89.8483 24.2 89.4283 24.2ZM97.3902 32.966C97.5582 32.966 97.7082 33.05 97.8402 33.218C97.9842 33.374 98.0562 33.584 98.0562 33.848C98.0562 34.172 97.8762 34.448 97.5162 34.676C97.1682 34.892 96.7722 35 96.3282 35C95.5842 35 94.9542 34.844 94.4382 34.532C93.9342 34.208 93.6822 33.53 93.6822 32.498V27.53H92.8542C92.5662 27.53 92.3262 27.434 92.1342 27.242C91.9422 27.05 91.8462 26.81 91.8462 26.522C91.8462 26.246 91.9422 26.018 92.1342 25.838C92.3262 25.646 92.5662 25.55 92.8542 25.55H93.6822V24.398C93.6822 24.086 93.7842 23.828 93.9882 23.624C94.2042 23.408 94.4682 23.3 94.7802 23.3C95.0802 23.3 95.3322 23.408 95.5362 23.624C95.7402 23.828 95.8422 24.086 95.8422 24.398V25.55H97.1202C97.4082 25.55 97.6482 25.646 97.8402 25.838C98.0322 26.03 98.1282 26.27 98.1282 26.558C98.1282 26.834 98.0322 27.068 97.8402 27.26C97.6482 27.44 97.4082 27.53 97.1202 27.53H95.8422V32.408C95.8422 32.66 95.9082 32.846 96.0402 32.966C96.1722 33.074 96.3522 33.128 96.5802 33.128C96.6762 33.128 96.8082 33.104 96.9762 33.056C97.1202 32.996 97.2582 32.966 97.3902 32.966ZM102.145 33.902C102.145 34.214 102.043 34.478 101.839 34.694C101.635 34.898 101.377 35 101.065 35C100.753 35 100.495 34.898 100.291 34.694C100.087 34.478 99.9854 34.214 99.9854 33.902V26.468C99.9854 26.156 100.087 25.898 100.291 25.694C100.495 25.478 100.753 25.37 101.065 25.37C101.377 25.37 101.635 25.478 101.839 25.694C102.043 25.898 102.145 26.156 102.145 26.468V33.902ZM101.047 24.2C100.639 24.2 100.351 24.134 100.183 24.002C100.015 23.87 99.9314 23.636 99.9314 23.3V22.958C99.9314 22.622 100.021 22.388 100.201 22.256C100.381 22.124 100.669 22.058 101.065 22.058C101.485 22.058 101.779 22.124 101.947 22.256C102.115 22.388 102.199 22.622 102.199 22.958V23.3C102.199 23.648 102.109 23.888 101.929 24.02C101.761 24.14 101.467 24.2 101.047 24.2ZM109.513 25.19C110.737 25.19 111.583 25.556 112.051 26.288C112.519 27.008 112.753 28.01 112.753 29.294V33.902C112.753 34.214 112.651 34.478 112.447 34.694C112.243 34.898 111.985 35 111.673 35C111.361 35 111.103 34.898 110.899 34.694C110.695 34.478 110.593 34.214 110.593 33.902V29.294C110.593 28.634 110.455 28.118 110.179 27.746C109.903 27.362 109.429 27.17 108.757 27.17C108.061 27.17 107.515 27.374 107.119 27.782C106.723 28.178 106.525 28.682 106.525 29.294V33.902C106.525 34.214 106.423 34.478 106.219 34.694C106.015 34.898 105.757 35 105.445 35C105.133 35 104.875 34.898 104.671 34.694C104.467 34.478 104.365 34.214 104.365 33.902V26.468C104.365 26.156 104.467 25.898 104.671 25.694C104.875 25.478 105.133 25.37 105.445 25.37C105.757 25.37 106.015 25.478 106.219 25.694C106.423 25.898 106.525 26.156 106.525 26.468V26.774C106.849 26.342 107.269 25.97 107.785 25.658C108.313 25.346 108.889 25.19 109.513 25.19ZM123.728 29.96C123.716 30.248 123.602 30.482 123.386 30.662C123.17 30.842 122.918 30.932 122.63 30.932H116.69C116.834 31.64 117.164 32.198 117.68 32.606C118.196 33.002 118.778 33.2 119.426 33.2C119.918 33.2 120.302 33.158 120.578 33.074C120.854 32.978 121.07 32.882 121.226 32.786C121.394 32.678 121.508 32.606 121.568 32.57C121.784 32.462 121.988 32.408 122.18 32.408C122.432 32.408 122.648 32.498 122.828 32.678C123.008 32.858 123.098 33.068 123.098 33.308C123.098 33.632 122.93 33.926 122.594 34.19C122.258 34.466 121.808 34.7 121.244 34.892C120.68 35.084 120.11 35.18 119.534 35.18C118.526 35.18 117.644 34.97 116.888 34.55C116.144 34.13 115.568 33.554 115.16 32.822C114.752 32.078 114.548 31.244 114.548 30.32C114.548 29.288 114.764 28.382 115.196 27.602C115.628 26.822 116.198 26.228 116.906 25.82C117.614 25.4 118.37 25.19 119.174 25.19C119.966 25.19 120.71 25.406 121.406 25.838C122.114 26.27 122.678 26.852 123.098 27.584C123.518 28.316 123.728 29.108 123.728 29.96ZM119.174 27.17C117.782 27.17 116.96 27.824 116.708 29.132H121.424V29.006C121.376 28.502 121.13 28.07 120.686 27.71C120.242 27.35 119.738 27.17 119.174 27.17ZM130.677 25.19C131.901 25.19 132.747 25.556 133.215 26.288C133.683 27.008 133.917 28.01 133.917 29.294V33.902C133.917 34.214 133.815 34.478 133.611 34.694C133.407 34.898 133.149 35 132.837 35C132.525 35 132.267 34.898 132.063 34.694C131.859 34.478 131.757 34.214 131.757 33.902V29.294C131.757 28.634 131.619 28.118 131.343 27.746C131.067 27.362 130.593 27.17 129.921 27.17C129.225 27.17 128.679 27.374 128.283 27.782C127.887 28.178 127.689 28.682 127.689 29.294V33.902C127.689 34.214 127.587 34.478 127.383 34.694C127.179 34.898 126.921 35 126.609 35C126.297 35 126.039 34.898 125.835 34.694C125.631 34.478 125.529 34.214 125.529 33.902V26.468C125.529 26.156 125.631 25.898 125.835 25.694C126.039 25.478 126.297 25.37 126.609 25.37C126.921 25.37 127.179 25.478 127.383 25.694C127.587 25.898 127.689 26.156 127.689 26.468V26.774C128.013 26.342 128.433 25.97 128.949 25.658C129.477 25.346 130.053 25.19 130.677 25.19Z" fill="black"/>
<path fill-rule="evenodd" clip-rule="evenodd" d="M13.3776 3.23881C2.65367 5.2636 -3.09013 16.5555 1.71301 26.1703C3.85259 30.4533 7.51224 33.3576 12.3928 34.6458L13.5501 34.9512L37.1061 34.9834C62.9016 35.0187 61.084 35.0701 61.6529 34.2904L61.9842 33.8363L61.9838 30.4597C61.9831 25.432 62.6858 25.887 54.9173 25.8829C48.6062 25.8795 48.3592 25.8597 47.7894 25.3115C47.1564 24.7023 47.1609 24.7825 47.1604 14.1132C47.16 1.68455 47.7369 3.07064 42.5646 3.07064C37.5523 3.07064 37.9702 2.50034 37.9657 9.34392L37.9623 14.4203L35.7202 9.51501C32.6532 2.80424 32.7448 2.85866 30.7291 6.54915C30.1465 7.61565 29.544 8.7066 29.3901 8.9733L29.1104 9.45829L28.5597 8.80221C24.9483 4.50069 18.7412 2.22611 13.3776 3.23881ZM19.1805 7.10638C21.3734 7.66469 23.5851 8.96254 25.1499 10.6093C25.8698 11.367 27.0518 13.0027 27.0518 13.2413C27.0518 13.2983 24.8166 17.3985 22.0846 22.3529L17.1171 31.361H16.1243C7.1095 31.361 1.03032 21.8422 4.92471 13.8248C7.5415 8.4379 13.4583 5.64943 19.1805 7.10638ZM37.1567 21.6487C39.5689 26.9418 41.5224 31.2927 41.4976 31.3173C41.4729 31.3421 36.9275 31.349 31.3968 31.333L21.3412 31.3038L26.8629 21.2882L32.3845 11.2725L32.5776 11.6486C32.6837 11.8555 34.7443 16.3555 37.1567 21.6487Z" fill="black"/>
</svg>
