<svg width="62" height="32" viewBox="0 0 62 32" fill="none" xmlns="http://www.w3.org/2000/svg">
<path fill-rule="evenodd" clip-rule="evenodd" d="M13.2807 0.238808C2.63445 2.2636 -3.06776 13.5555 1.70061 23.1703C3.8247 27.4533 7.45786 30.3576 12.3031 31.6458L13.452 31.9512L36.8374 31.9834C62.4463 32.0187 60.6418 32.0701 61.2065 31.2904L61.5355 30.8363L61.535 27.4597C61.5344 22.432 62.232 22.887 54.5197 22.8829C48.2543 22.8795 48.0091 22.8597 47.4434 22.3115C46.815 21.7023 46.8195 21.7825 46.819 11.1132C46.8186 -1.31545 47.3913 0.0706388 42.2565 0.0706388C37.2805 0.0706388 37.6953 -0.499659 37.6909 6.34392L37.6875 11.4203L35.4617 6.51501C32.4168 -0.195756 32.5078 -0.14134 30.5067 3.54915C29.9282 4.61565 29.3301 5.7066 29.1773 5.9733L28.8997 6.45829L28.3529 5.80221C24.7677 1.50069 18.6056 -0.773894 13.2807 0.238808ZM19.0417 4.10638C21.2186 4.66469 23.4144 5.96254 24.9679 7.60933C25.6825 8.36702 26.856 10.0027 26.856 10.2413C26.856 10.2983 24.6369 14.3985 21.9247 19.3529L16.9932 28.361H16.0076C7.05803 28.361 1.02286 18.8422 4.88905 10.8248C7.48691 5.4379 13.3608 2.64943 19.0417 4.10638ZM36.8877 18.6487C39.2825 23.9418 41.2218 28.2927 41.1972 28.3173C41.1726 28.3421 36.6602 28.349 31.1695 28.333L21.1867 28.3038L26.6685 18.2882L32.1501 8.27248L32.3418 8.64863C32.4471 8.85554 34.4928 13.3555 36.8877 18.6487Z" fill="#210101"/>
</svg>
